<svg xmlns="http://www.w3.org/2000/svg" viewBox="0 0 106 18.55"><defs><style>.cls-1{fill:#fff;}</style></defs><g id="Capa_2" data-name="Capa 2"><g id="fondos"><path class="cls-1" d="M32.54,1a4.84,4.84,0,0,0-4.12,2.15V2.94a1.88,1.88,0,0,0-3.76,0V16.68a1.88,1.88,0,0,0,3.76,0v-4a5.06,5.06,0,0,0,4.12,2c3.14,0,6-2.42,6-6.84V7.81C38.57,3.39,35.63,1,32.54,1Zm2.27,6.89a3.25,3.25,0,1,1-6.44,0V7.81a3.25,3.25,0,1,1,6.44,0ZM45.68,1a6.6,6.6,0,0,0-6.55,6.89v0a6.62,6.62,0,0,0,6.92,6.84,6.83,6.83,0,0,0,4.59-1.61,1.48,1.48,0,0,0-1-2.59,1.39,1.39,0,0,0-.91.3,4.33,4.33,0,0,1-2.67.89,3.07,3.07,0,0,1-3.24-2.6H50.3a1.7,1.7,0,0,0,1.75-1.8A6.26,6.26,0,0,0,45.68,1ZM42.81,6.8C43.11,5.09,44.12,4,45.68,4s2.57,1.14,2.79,2.82ZM64.92,2.85a2.79,2.79,0,0,1-.2.89l-4,9.36a2.34,2.34,0,0,1-2.12,1.63h-.2a2.32,2.32,0,0,1-2.13-1.63l-4-9.36A2.72,2.72,0,0,1,52,2.82,1.83,1.83,0,0,1,53.8,1.07,1.81,1.81,0,0,1,55.63,2.4l2.84,7.68,2.89-7.73a1.82,1.82,0,0,1,1.75-1.28A1.78,1.78,0,0,1,64.92,2.85Zm6.15-1.78a11.44,11.44,0,0,0-4.23.69,1.56,1.56,0,0,0-1,1.46,1.53,1.53,0,0,0,1.56,1.53,1.68,1.68,0,0,0,.54-.1,8.72,8.72,0,0,1,2.59-.37c1.88,0,2.84.86,2.84,2.42v.22a9.43,9.43,0,0,0-3.23-.54c-3.14,0-5.34,1.33-5.34,4.22v.05c0,2.62,2,4,4.55,4a5.1,5.1,0,0,0,4-1.68v0a1.67,1.67,0,0,0,1.8,1.55A1.81,1.81,0,0,0,77,12.8v-6a5.79,5.79,0,0,0-1.43-4.22A6.11,6.11,0,0,0,71.07,1.07Zm2.34,8.72c0,1.35-1.18,2.32-2.94,2.32-1.21,0-2-.6-2-1.61v-.05c0-1.18,1-1.82,2.6-1.82a5.74,5.74,0,0,1,2.39.49ZM84.13,1.07a11.39,11.39,0,0,0-4.22.69,1.54,1.54,0,0,0,.54,3,1.68,1.68,0,0,0,.54-.1,8.74,8.74,0,0,1,2.6-.37c1.87,0,2.84.86,2.84,2.42v.22a9.44,9.44,0,0,0-3.24-.54c-3.13,0-5.33,1.33-5.33,4.22v.05c0,2.62,2,4,4.54,4a5.09,5.09,0,0,0,4-1.68v0a1.68,1.68,0,0,0,1.81,1.55A1.8,1.8,0,0,0,90,12.8v-6A5.75,5.75,0,0,0,88.6,2.55,6.11,6.11,0,0,0,84.13,1.07Zm2.35,8.72c0,1.35-1.19,2.32-2.94,2.32-1.21,0-2.05-.6-2.05-1.61v-.05c0-1.18,1-1.82,2.59-1.82a5.83,5.83,0,0,1,2.4.49ZM99.84,2.9a1.73,1.73,0,0,1-1.41,1.75c-1.9.44-3,1.9-3,4.57v3.5a1.88,1.88,0,1,1-3.76,0V2.94a1.88,1.88,0,0,1,3.76,0v.6C96,2.25,96.9,1.07,98,1.07A1.71,1.71,0,0,1,99.84,2.9Zm6-.62a2.34,2.34,0,0,0-.5-.76,2.49,2.49,0,0,0-1.77-.68,2.67,2.67,0,0,0-1,.18,2.27,2.27,0,0,0-.78.5,2.4,2.4,0,0,0-.5.75,2.6,2.6,0,0,0,0,1.85,2.36,2.36,0,0,0,.5.74,2.27,2.27,0,0,0,.78.5,2.67,2.67,0,0,0,1,.18,2.49,2.49,0,0,0,1.77-.68,2.29,2.29,0,0,0,.5-.75,2.42,2.42,0,0,0,0-1.83Zm-1.09,2.11a1.77,1.77,0,0,1-2.36,0,1.62,1.62,0,0,1-.45-1.2,1.8,1.8,0,0,1,.12-.66,1.46,1.46,0,0,1,.32-.54,1.62,1.62,0,0,1,1.19-.47,1.59,1.59,0,0,1,1.19.47,1.8,1.8,0,0,1,.32.54,2,2,0,0,1,.11.66A1.66,1.66,0,0,1,104.73,4.39Zm-.25-1.62a.7.7,0,0,0-.26-.56,1.18,1.18,0,0,0-.73-.2c-.51,0-.77.09-.77.25V3.94a.27.27,0,0,0,.08.22.38.38,0,0,0,.24.06h.17c.12,0,.17-.16.17-.45V3.52h.09l.29.45a.65.65,0,0,0,.18.21.48.48,0,0,0,.24.06.41.41,0,0,0,.23-.06.16.16,0,0,0,0-.12.91.91,0,0,0-.11-.35,3.59,3.59,0,0,1-.25-.33A.64.64,0,0,0,104.48,2.77Zm-1,.26h-.14v-.5h.13c.2,0,.3.09.3.25S103.72,3,103.52,3ZM3.52,15.58a1.76,1.76,0,1,1-1.76-1.76A1.76,1.76,0,0,1,3.52,15.58ZM15.71,7.2H12.19A4.21,4.21,0,0,0,12.36,6V4.13A4.13,4.13,0,0,0,8.23,0H4.13A4.13,4.13,0,0,0,0,4.13V6a4.12,4.12,0,0,0,3.71,4.1,4.37,4.37,0,0,0-.18,1.21v1.89a4.12,4.12,0,0,0,4.13,4.12h8.05a4.12,4.12,0,0,0,4.13-4.12V11.33A4.13,4.13,0,0,0,15.71,7.2ZM8.23,10.14H4.13a3,3,0,0,1-.42,0,4.14,4.14,0,0,1,4-2.92h4.53A4.13,4.13,0,0,1,8.23,10.14Z"/></g></g></svg>